<svg xmlns="http://www.w3.org/2000/svg" viewBox="0 0 720 360" font-family="ui-monospace, 'Cascadia Mono', Consolas, Menlo, monospace">
  <rect width="720" height="360" fill="#0b1626"/>

  <text x="32" y="40" font-family="Georgia, 'Times New Roman', serif" font-size="20" fill="#ece7da">The Allen gap, on both boards</text>
  <text x="32" y="60" font-size="10" letter-spacing="1.5" fill="#5d6b82">QUARTERBACK ADP · 12-TEAM ROUNDS · 2026-06-15</text>

  <!-- Legend -->
  <circle cx="500" cy="36" r="5" fill="#e8bf4a"/>
  <text x="512" y="40" font-size="9" letter-spacing="1" fill="#9aa7bd">UNDERDOG</text>
  <circle cx="602" cy="36" r="5" fill="#0b1626" stroke="#9aa7bd" stroke-width="2"/>
  <text x="614" y="40" font-size="9" letter-spacing="1" fill="#9aa7bd">DRAFTKINGS</text>

  <!-- Round boundaries (x = 150 + (pick - 24) * 9) -->
  <line x1="262.5" y1="100" x2="262.5" y2="318" stroke="#1a2d50" stroke-width="1"/>
  <line x1="370.5" y1="100" x2="370.5" y2="318" stroke="#1a2d50" stroke-width="1"/>
  <line x1="478.5" y1="100" x2="478.5" y2="318" stroke="#1a2d50" stroke-width="1"/>
  <line x1="586.5" y1="100" x2="586.5" y2="318" stroke="#1a2d50" stroke-width="1"/>
  <line x1="150" y1="318" x2="690" y2="318" stroke="#243a5c" stroke-width="1"/>
  <text x="207" y="90" font-size="9" letter-spacing="1.5" fill="#5d6b82" text-anchor="middle">ROUND 3</text>
  <text x="316.5" y="90" font-size="9" letter-spacing="1.5" fill="#5d6b82" text-anchor="middle">ROUND 4</text>
  <text x="424.5" y="90" font-size="9" letter-spacing="1.5" fill="#5d6b82" text-anchor="middle">ROUND 5</text>
  <text x="532.5" y="90" font-size="9" letter-spacing="1.5" fill="#5d6b82" text-anchor="middle">ROUND 6</text>
  <text x="638" y="90" font-size="9" letter-spacing="1.5" fill="#5d6b82" text-anchor="middle">ROUND 7</text>

  <!-- Zero-QB band: Allen UD 33.6 to Lamar DK 53.4 -->
  <rect x="236.4" y="100" width="178.2" height="218" fill="#e8bf4a" fill-opacity="0.05"/>
  <line x1="236.4" y1="100" x2="236.4" y2="318" stroke="#e8bf4a" stroke-opacity="0.25" stroke-width="1" stroke-dasharray="4 4"/>
  <line x1="414.6" y1="100" x2="414.6" y2="318" stroke="#e8bf4a" stroke-opacity="0.25" stroke-width="1" stroke-dasharray="4 4"/>
  <text x="325.5" y="113" font-size="9" letter-spacing="1.5" fill="#e8bf4a" text-anchor="middle">ZERO QBs, EITHER BOARD</text>

  <!-- Josh Allen: DK 25.7, UD 33.6 -->
  <text x="24" y="134" font-size="12" fill="#ece7da">Josh Allen</text>
  <line x1="165.3" y1="130" x2="236.4" y2="130" stroke="#e8bf4a" stroke-opacity="0.4" stroke-width="3"/>
  <circle cx="165.3" cy="130" r="5.5" fill="#0b1626" stroke="#9aa7bd" stroke-width="2"/>
  <circle cx="236.4" cy="130" r="5.5" fill="#e8bf4a"/>
  <text x="153.3" y="134" font-size="10" fill="#9aa7bd" text-anchor="end">25.7</text>
  <text x="248.4" y="134" font-size="10" fill="#e8bf4a">33.6</text>

  <!-- Lamar Jackson: DK 53.4, UD 56.5 -->
  <text x="24" y="169" font-size="12" fill="#ece7da">Lamar Jackson</text>
  <line x1="414.6" y1="165" x2="442.5" y2="165" stroke="#e8bf4a" stroke-opacity="0.4" stroke-width="3"/>
  <circle cx="414.6" cy="165" r="5.5" fill="#0b1626" stroke="#9aa7bd" stroke-width="2"/>
  <circle cx="442.5" cy="165" r="5.5" fill="#e8bf4a"/>
  <text x="402.6" y="169" font-size="10" fill="#9aa7bd" text-anchor="end">53.4</text>
  <text x="454.5" y="169" font-size="10" fill="#e8bf4a">56.5</text>

  <!-- Joe Burrow: DK 58.6, UD 65.3 -->
  <text x="24" y="204" font-size="12" fill="#ece7da">Joe Burrow</text>
  <line x1="461.4" y1="200" x2="521.7" y2="200" stroke="#e8bf4a" stroke-opacity="0.4" stroke-width="3"/>
  <circle cx="461.4" cy="200" r="5.5" fill="#0b1626" stroke="#9aa7bd" stroke-width="2"/>
  <circle cx="521.7" cy="200" r="5.5" fill="#e8bf4a"/>
  <text x="449.4" y="204" font-size="10" fill="#9aa7bd" text-anchor="end">58.6</text>
  <text x="533.7" y="204" font-size="10" fill="#e8bf4a">65.3</text>

  <!-- Jayden Daniels: UD 67.0, DK 70.1 -->
  <text x="24" y="239" font-size="12" fill="#ece7da">Jayden Daniels</text>
  <line x1="537" y1="235" x2="564.9" y2="235" stroke="#e8bf4a" stroke-opacity="0.4" stroke-width="3"/>
  <circle cx="537" cy="235" r="5.5" fill="#e8bf4a"/>
  <circle cx="564.9" cy="235" r="5.5" fill="#0b1626" stroke="#9aa7bd" stroke-width="2"/>
  <text x="525" y="239" font-size="10" fill="#e8bf4a" text-anchor="end">67.0</text>
  <text x="576.9" y="239" font-size="10" fill="#9aa7bd">70.1</text>

  <!-- Drake Maye: DK 65.1, UD 68.7 -->
  <text x="24" y="274" font-size="12" fill="#ece7da">Drake Maye</text>
  <line x1="519.9" y1="270" x2="552.3" y2="270" stroke="#e8bf4a" stroke-opacity="0.4" stroke-width="3"/>
  <circle cx="519.9" cy="270" r="5.5" fill="#0b1626" stroke="#9aa7bd" stroke-width="2"/>
  <circle cx="552.3" cy="270" r="5.5" fill="#e8bf4a"/>
  <text x="507.9" y="274" font-size="10" fill="#9aa7bd" text-anchor="end">65.1</text>
  <text x="564.3" y="274" font-size="10" fill="#e8bf4a">68.7</text>

  <!-- Jalen Hurts: UD 71.5, DK 75.8 -->
  <text x="24" y="309" font-size="12" fill="#ece7da">Jalen Hurts</text>
  <line x1="577.5" y1="305" x2="616.2" y2="305" stroke="#e8bf4a" stroke-opacity="0.4" stroke-width="3"/>
  <circle cx="577.5" cy="305" r="5.5" fill="#e8bf4a"/>
  <circle cx="616.2" cy="305" r="5.5" fill="#0b1626" stroke="#9aa7bd" stroke-width="2"/>
  <text x="565.5" y="309" font-size="10" fill="#e8bf4a" text-anchor="end">71.5</text>
  <text x="628.2" y="309" font-size="10" fill="#9aa7bd">75.8</text>

  <text x="32" y="350" font-size="9" letter-spacing="1" fill="#5d6b82">SOURCE: BEST BALL EXPOSURES ADP TRACKER · UNDERDOG + DRAFTKINGS · 2026-06-15</text>
</svg>
