<svg xmlns="http://www.w3.org/2000/svg" width="720" height="500" viewBox="0 0 720 500" font-family="ui-monospace, 'Cascadia Mono', Consolas, Menlo, monospace">
<rect width="720" height="500" fill="#0b1626"/>
<text x="32" y="42" font-family="Georgia, 'Times New Roman', serif" font-size="20" fill="#ece7da">The finished bye board</text>
<text x="32" y="62" font-size="10" letter-spacing="1.5" fill="#5d6b82">A CLEAN RAINBOW, WEEK 5 → WEEK 14 · AIYUK'S WEEK 7 PROJECTED (FREE AGENT)</text>
<rect x="574.0" y="108" width="126.0" height="328" fill="#e8bf4a" opacity="0.07"/>
<text x="637.0" y="90" font-size="9" letter-spacing="1.5" fill="#e8bf4a" text-anchor="middle">MONEY WEEKS</text>
<line x1="70.0" y1="108" x2="70.0" y2="436" stroke="#1a2d50" stroke-width="1"/>
<line x1="133.0" y1="108" x2="133.0" y2="436" stroke="#1a2d50" stroke-width="1"/>
<line x1="196.0" y1="108" x2="196.0" y2="436" stroke="#1a2d50" stroke-width="1"/>
<line x1="259.0" y1="108" x2="259.0" y2="436" stroke="#1a2d50" stroke-width="1"/>
<line x1="322.0" y1="108" x2="322.0" y2="436" stroke="#1a2d50" stroke-width="1"/>
<line x1="385.0" y1="108" x2="385.0" y2="436" stroke="#1a2d50" stroke-width="1"/>
<line x1="448.0" y1="108" x2="448.0" y2="436" stroke="#1a2d50" stroke-width="1"/>
<line x1="511.0" y1="108" x2="511.0" y2="436" stroke="#1a2d50" stroke-width="1"/>
<line x1="574.0" y1="108" x2="574.0" y2="436" stroke="#1a2d50" stroke-width="1"/>
<line x1="637.0" y1="108" x2="637.0" y2="436" stroke="#1a2d50" stroke-width="1"/>
<line x1="700.0" y1="108" x2="700.0" y2="436" stroke="#1a2d50" stroke-width="1"/>
<text x="101.5" y="104" font-size="12" fill="#5d6b82" text-anchor="middle">5</text>
<text x="164.5" y="104" font-size="12" fill="#5d6b82" text-anchor="middle">6</text>
<text x="227.5" y="104" font-size="12" fill="#5d6b82" text-anchor="middle">7</text>
<text x="290.5" y="104" font-size="12" fill="#5d6b82" text-anchor="middle">8</text>
<text x="353.5" y="104" font-size="12" fill="#5d6b82" text-anchor="middle">9</text>
<text x="416.5" y="104" font-size="12" fill="#5d6b82" text-anchor="middle">10</text>
<text x="479.5" y="104" font-size="12" fill="#5d6b82" text-anchor="middle">11</text>
<text x="542.5" y="104" font-size="12" fill="#5d6b82" text-anchor="middle">12</text>
<text x="605.5" y="104" font-size="12" fill="#e8bf4a" text-anchor="middle">13</text>
<text x="668.5" y="104" font-size="12" fill="#e8bf4a" text-anchor="middle">14</text>
<line x1="70" y1="108" x2="700" y2="108" stroke="#1a2d50" stroke-width="1"/>
<text x="34" y="148.0" font-size="14" font-weight="bold" fill="#ece7da">QB</text>
<rect x="72.5" y="128.0" width="58" height="30" rx="5" fill="#0f1f38" stroke="#243a5c" stroke-width="1"/>
<text x="101.5" y="147.0" font-size="9" font-weight="normal" fill="#ece7da" text-anchor="middle">Mahomes</text>
<rect x="450.5" y="128.0" width="58" height="30" rx="5" fill="#0f1f38" stroke="#243a5c" stroke-width="1"/>
<text x="479.5" y="147.0" font-size="9" font-weight="normal" fill="#ece7da" text-anchor="middle">Watson</text>
<rect x="639.5" y="128.0" width="58" height="30" rx="5" fill="#e8bf4a" stroke="#e8bf4a" stroke-width="1"/>
<text x="668.5" y="147.0" font-size="9" font-weight="bold" fill="#0b1626" text-anchor="middle">Dak</text>
<line x1="70" y1="190" x2="700" y2="190" stroke="#1a2d50" stroke-width="1"/>
<text x="34" y="230.0" font-size="14" font-weight="bold" fill="#ece7da">RB</text>
<rect x="135.5" y="210.0" width="58" height="30" rx="5" fill="#0f1f38" stroke="#243a5c" stroke-width="1"/>
<text x="164.5" y="229.0" font-size="9" font-weight="normal" fill="#ece7da" text-anchor="middle">Achane</text>
<rect x="261.5" y="210.0" width="58" height="30" rx="5" fill="#0f1f38" stroke="#243a5c" stroke-width="1"/>
<text x="290.5" y="229.0" font-size="9" font-weight="normal" fill="#ece7da" text-anchor="middle">Tracy</text>
<rect x="324.5" y="210.0" width="58" height="30" rx="5" fill="#0f1f38" stroke="#243a5c" stroke-width="1"/>
<text x="353.5" y="229.0" font-size="9" font-weight="normal" fill="#ece7da" text-anchor="middle">Warren</text>
<rect x="450.5" y="210.0" width="58" height="30" rx="5" fill="#0f1f38" stroke="#243a5c" stroke-width="1"/>
<text x="479.5" y="229.0" font-size="9" font-weight="normal" fill="#ece7da" text-anchor="middle">Jacobs</text>
<rect x="639.5" y="210.0" width="58" height="30" rx="5" fill="#e8bf4a" stroke="#e8bf4a" stroke-width="1"/>
<text x="668.5" y="229.0" font-size="9" font-weight="bold" fill="#0b1626" text-anchor="middle">Allgeier</text>
<line x1="70" y1="272" x2="700" y2="272" stroke="#1a2d50" stroke-width="1"/>
<text x="34" y="312.0" font-size="14" font-weight="bold" fill="#ece7da">WR</text>
<rect x="135.5" y="292.0" width="58" height="30" rx="5" fill="#0f1f38" stroke="#243a5c" stroke-width="1"/>
<text x="164.5" y="311.0" font-size="9" font-weight="normal" fill="#ece7da" text-anchor="middle">Washington</text>
<rect x="261.5" y="292.0" width="58" height="30" rx="5" fill="#0f1f38" stroke="#243a5c" stroke-width="1"/>
<text x="290.5" y="311.0" font-size="9" font-weight="normal" fill="#ece7da" text-anchor="middle">Pearsall</text>
<rect x="198.5" y="292.0" width="58" height="30" rx="5" fill="#0f1f38" stroke="#5d6b82" stroke-width="1.2" stroke-dasharray="3 2"/>
<text x="227.5" y="308.0" font-size="9" fill="#9fb1c9" text-anchor="middle">Aiyuk</text>
<text x="227.5" y="317.5" font-size="6.5" fill="#5d6b82" text-anchor="middle">proj.</text>
<rect x="387.5" y="292.0" width="58" height="30" rx="5" fill="#0f1f38" stroke="#243a5c" stroke-width="1"/>
<text x="416.5" y="311.0" font-size="9" font-weight="normal" fill="#ece7da" text-anchor="middle">Godwin</text>
<rect x="450.5" y="292.0" width="58" height="30" rx="5" fill="#0f1f38" stroke="#243a5c" stroke-width="1"/>
<text x="479.5" y="311.0" font-size="9" font-weight="normal" fill="#ece7da" text-anchor="middle">Concepcion</text>
<rect x="576.5" y="292.0" width="58" height="30" rx="5" fill="#e8bf4a" stroke="#e8bf4a" stroke-width="1"/>
<text x="605.5" y="311.0" font-size="9" font-weight="bold" fill="#0b1626" text-anchor="middle">G.Wilson</text>
<rect x="639.5" y="292.0" width="58" height="30" rx="5" fill="#e8bf4a" stroke="#e8bf4a" stroke-width="1"/>
<text x="668.5" y="311.0" font-size="9" font-weight="bold" fill="#0b1626" text-anchor="middle">Lamb</text>
<line x1="70" y1="354" x2="700" y2="354" stroke="#1a2d50" stroke-width="1"/>
<text x="34" y="394.0" font-size="14" font-weight="bold" fill="#ece7da">TE</text>
<rect x="324.5" y="374.0" width="58" height="30" rx="5" fill="#0f1f38" stroke="#243a5c" stroke-width="1"/>
<text x="353.5" y="393.0" font-size="9" font-weight="normal" fill="#ece7da" text-anchor="middle">Helm</text>
<rect x="387.5" y="374.0" width="58" height="30" rx="5" fill="#0f1f38" stroke="#243a5c" stroke-width="1"/>
<text x="416.5" y="393.0" font-size="9" font-weight="normal" fill="#ece7da" text-anchor="middle">Loveland</text>
<rect x="450.5" y="374.0" width="58" height="30" rx="5" fill="#0f1f38" stroke="#243a5c" stroke-width="1"/>
<text x="479.5" y="393.0" font-size="9" font-weight="normal" fill="#ece7da" text-anchor="middle">Henry</text>
<line x1="70" y1="436" x2="700" y2="436" stroke="#1a2d50" stroke-width="1"/>
<rect x="32" y="453" width="14" height="14" rx="3" fill="#e8bf4a"/>
<text x="52" y="464" font-size="9.5" fill="#5d6b82">best players parked on the money-week byes (13–14)</text>
<rect x="392" y="453" width="14" height="14" rx="3" fill="#0f1f38" stroke="#5d6b82" stroke-width="1.2" stroke-dasharray="3 2"/>
<text x="412" y="464" font-size="9.5" fill="#5d6b82">projected: Aiyuk's Week 7 if he lands in Washington</text>
<text x="32" y="488" font-size="9" letter-spacing="1" fill="#5d6b82">SOURCE: BEST BALL EXPOSURES TRACKER · BYES 2026-06-19 · LIVE DRAFT FROM THE 8 SEAT</text>
</svg>