<svg xmlns="http://www.w3.org/2000/svg" viewBox="0 0 720 360" font-family="ui-monospace, 'Cascadia Mono', Consolas, Menlo, monospace">
  <rect width="720" height="360" fill="#0b1626"/>

  <text x="32" y="40" font-family="Georgia, 'Times New Roman', serif" font-size="20" fill="#ece7da">How the Eliminator re-prices the board</text>
  <text x="32" y="60" font-size="10" letter-spacing="1.5" fill="#5d6b82">RANK MOVEMENT vs. STANDARD ADP · 6/19 BOARD SNAPSHOT</text>

  <!-- Direction labels -->
  <text x="372" y="84" font-size="9" letter-spacing="1.5" fill="#ef4444" text-anchor="end">← FALLS</text>
  <text x="388" y="84" font-size="9" letter-spacing="1.5" fill="#34d399">RISES →</text>

  <!-- Zero axis (x = 380; scale 3px per rank) -->
  <line x1="380" y1="92" x2="380" y2="318" stroke="#243a5c" stroke-width="1.5"/>

  <!-- ===== RISERS (emerald, extend right) ===== -->
  <!-- Dak Prescott +26 -->
  <text x="24" y="120" font-size="12" fill="#ece7da">Dak Prescott (bye 14)</text>
  <rect x="380" y="108" width="78" height="16" fill="#34d399"/>
  <text x="464" y="120" font-size="11" fill="#34d399">+26</text>

  <!-- Tyler Warren +19 -->
  <text x="24" y="146" font-size="12" fill="#ece7da">Tyler Warren (bye 13)</text>
  <rect x="380" y="134" width="57" height="16" fill="#34d399"/>
  <text x="443" y="146" font-size="11" fill="#34d399">+19</text>

  <!-- Javonte Williams +13 -->
  <text x="24" y="172" font-size="12" fill="#ece7da">Javonte Williams (bye 14)</text>
  <rect x="380" y="160" width="39" height="16" fill="#34d399"/>
  <text x="425" y="172" font-size="11" fill="#34d399">+13</text>

  <!-- Derrick Henry +12 -->
  <text x="24" y="198" font-size="12" fill="#ece7da">Derrick Henry (bye 13)</text>
  <rect x="380" y="186" width="36" height="16" fill="#34d399"/>
  <text x="422" y="198" font-size="11" fill="#34d399">+12</text>

  <!-- divider -->
  <line x1="160" y1="212" x2="500" y2="212" stroke="#1a2d50" stroke-width="1" stroke-dasharray="4 4"/>

  <!-- ===== FALLERS (red, extend left) ===== -->
  <!-- Jayden Daniels -37 -->
  <text x="24" y="230" font-size="12" fill="#ece7da">Jayden Daniels</text>
  <rect x="269" y="218" width="111" height="16" fill="#ef4444"/>
  <text x="263" y="230" font-size="11" fill="#ef4444" text-anchor="end">−37</text>

  <!-- Brian Thomas -48 -->
  <text x="24" y="256" font-size="12" fill="#ece7da">Brian Thomas</text>
  <rect x="236" y="244" width="144" height="16" fill="#ef4444"/>
  <text x="230" y="256" font-size="11" fill="#ef4444" text-anchor="end">−48</text>

  <!-- Mike Evans -58 -->
  <text x="24" y="282" font-size="12" fill="#ece7da">Mike Evans</text>
  <rect x="206" y="270" width="174" height="16" fill="#ef4444"/>
  <text x="200" y="282" font-size="11" fill="#ef4444" text-anchor="end">−58</text>

  <!-- Jordyn Tyson -58 -->
  <text x="24" y="308" font-size="12" fill="#ece7da">Jordyn Tyson (rookie)</text>
  <rect x="206" y="296" width="174" height="16" fill="#ef4444"/>
  <text x="200" y="308" font-size="11" fill="#ef4444" text-anchor="end">−58</text>

  <text x="32" y="350" font-size="9" letter-spacing="1" fill="#5d6b82">SOURCE: BEST BALL EXPOSURES ELIMINATOR BOARD · 2026-06-19</text>
</svg>
