<svg xmlns="http://www.w3.org/2000/svg" width="593" height="37" viewBox="0 0 593 37" font-family="ui-monospace, 'Cascadia Mono', Consolas, Menlo, monospace"><defs><clipPath id="c0"><rect x="2" y="3" width="34" height="32" rx="5"/></clipPath><clipPath id="c1"><rect x="39" y="3" width="34" height="32" rx="5"/></clipPath><clipPath id="c2"><rect x="76" y="3" width="34" height="32" rx="5"/></clipPath><clipPath id="c3"><rect x="113" y="3" width="34" height="32" rx="5"/></clipPath><clipPath id="c4"><rect x="150" y="3" width="34" height="32" rx="5"/></clipPath><clipPath id="c5"><rect x="187" y="3" width="34" height="32" rx="5"/></clipPath><clipPath id="c6"><rect x="224" y="3" width="34" height="32" rx="5"/></clipPath><clipPath id="c7"><rect x="261" y="3" width="34" height="32" rx="5"/></clipPath><clipPath id="c8"><rect x="298" y="3" width="34" height="32" rx="5"/></clipPath><clipPath id="c9"><rect x="335" y="3" width="34" height="32" rx="5"/></clipPath><clipPath id="c10"><rect x="372" y="3" width="34" height="32" rx="5"/></clipPath><clipPath id="c11"><rect x="409" y="3" width="34" height="32" rx="5"/></clipPath><clipPath id="c12"><rect x="446" y="3" width="34" height="32" rx="5"/></clipPath><clipPath id="c13"><rect x="483" y="3" width="34" height="32" rx="5"/></clipPath><clipPath id="c14"><rect x="520" y="3" width="34" height="32" rx="5"/></clipPath><clipPath id="c15"><rect x="557" y="3" width="34" height="32" rx="5"/></clipPath></defs><g clip-path="url(#c0)"><rect x="2" y="3" width="34" height="13" fill="#f59e0b"/><rect x="2" y="16" width="34" height="19" fill="#46c06a"/></g><line x1="2" y1="16" x2="36" y2="16" stroke="#0b1626" stroke-width="0.8" opacity="0.25"/><text x="19" y="13" font-size="8.5" font-weight="bold" fill="#0b1626" text-anchor="middle" letter-spacing="0.5">WR</text><text x="19" y="31" font-size="12.5" font-weight="bold" fill="#0b1626" text-anchor="middle">14</text><g clip-path="url(#c1)"><rect x="39" y="3" width="34" height="13" fill="#10b981"/><rect x="39" y="16" width="34" height="19" fill="#e16f41"/></g><line x1="39" y1="16" x2="73" y2="16" stroke="#0b1626" stroke-width="0.8" opacity="0.25"/><text x="56" y="13" font-size="8.5" font-weight="bold" fill="#0b1626" text-anchor="middle" letter-spacing="0.5">RB</text><text x="56" y="31" font-size="12.5" font-weight="bold" fill="#0b1626" text-anchor="middle">6</text><g clip-path="url(#c2)"><rect x="76" y="3" width="34" height="13" fill="#10b981"/><rect x="76" y="16" width="34" height="19" fill="#b1c255"/></g><line x1="76" y1="16" x2="110" y2="16" stroke="#0b1626" stroke-width="0.8" opacity="0.25"/><text x="93" y="13" font-size="8.5" font-weight="bold" fill="#0b1626" text-anchor="middle" letter-spacing="0.5">RB</text><text x="93" y="31" font-size="12.5" font-weight="bold" fill="#0b1626" text-anchor="middle">11</text><g clip-path="url(#c3)"><rect x="113" y="3" width="34" height="13" fill="#f59e0b"/><rect x="113" y="16" width="34" height="19" fill="#6ac163"/></g><line x1="113" y1="16" x2="147" y2="16" stroke="#0b1626" stroke-width="0.8" opacity="0.25"/><text x="130" y="13" font-size="8.5" font-weight="bold" fill="#0b1626" text-anchor="middle" letter-spacing="0.5">WR</text><text x="130" y="31" font-size="12.5" font-weight="bold" fill="#0b1626" text-anchor="middle">13</text><g clip-path="url(#c4)"><rect x="150" y="3" width="34" height="13" fill="#3b82f6"/><rect x="150" y="16" width="34" height="19" fill="#d4c34e"/></g><line x1="150" y1="16" x2="184" y2="16" stroke="#0b1626" stroke-width="0.8" opacity="0.25"/><text x="167" y="13" font-size="8.5" font-weight="bold" fill="#0b1626" text-anchor="middle" letter-spacing="0.5">TE</text><text x="167" y="31" font-size="12.5" font-weight="bold" fill="#0b1626" text-anchor="middle">10</text><g clip-path="url(#c5)"><rect x="187" y="3" width="34" height="13" fill="#10b981"/><rect x="187" y="16" width="34" height="19" fill="#e5b749"/></g><line x1="187" y1="16" x2="221" y2="16" stroke="#0b1626" stroke-width="0.8" opacity="0.25"/><text x="204" y="13" font-size="8.5" font-weight="bold" fill="#0b1626" text-anchor="middle" letter-spacing="0.5">RB</text><text x="204" y="31" font-size="12.5" font-weight="bold" fill="#0b1626" text-anchor="middle">9</text><g clip-path="url(#c6)"><rect x="224" y="3" width="34" height="13" fill="#bf44ef"/><rect x="224" y="16" width="34" height="19" fill="#46c06a"/></g><line x1="224" y1="16" x2="258" y2="16" stroke="#0b1626" stroke-width="0.8" opacity="0.25"/><text x="241" y="13" font-size="8.5" font-weight="bold" fill="#0b1626" text-anchor="middle" letter-spacing="0.5">QB</text><text x="241" y="31" font-size="12.5" font-weight="bold" fill="#0b1626" text-anchor="middle">14</text><g clip-path="url(#c7)"><rect x="261" y="3" width="34" height="13" fill="#f59e0b"/><rect x="261" y="16" width="34" height="19" fill="#d4c34e"/></g><line x1="261" y1="16" x2="295" y2="16" stroke="#0b1626" stroke-width="0.8" opacity="0.25"/><text x="278" y="13" font-size="8.5" font-weight="bold" fill="#0b1626" text-anchor="middle" letter-spacing="0.5">WR</text><text x="278" y="31" font-size="12.5" font-weight="bold" fill="#0b1626" text-anchor="middle">10</text><g clip-path="url(#c8)"><rect x="298" y="3" width="34" height="13" fill="#bf44ef"/><rect x="298" y="16" width="34" height="19" fill="#e0573e"/></g><line x1="298" y1="16" x2="332" y2="16" stroke="#0b1626" stroke-width="0.8" opacity="0.25"/><text x="315" y="13" font-size="8.5" font-weight="bold" fill="#0b1626" text-anchor="middle" letter-spacing="0.5">QB</text><text x="315" y="31" font-size="12.5" font-weight="bold" fill="#0b1626" text-anchor="middle">5</text><g clip-path="url(#c9)"><rect x="335" y="3" width="34" height="13" fill="#f59e0b"/><rect x="335" y="16" width="34" height="19" fill="#e49f46"/></g><line x1="335" y1="16" x2="369" y2="16" stroke="#0b1626" stroke-width="0.8" opacity="0.25"/><text x="352" y="13" font-size="8.5" font-weight="bold" fill="#0b1626" text-anchor="middle" letter-spacing="0.5">WR</text><text x="352" y="31" font-size="12.5" font-weight="bold" fill="#0b1626" text-anchor="middle">8</text><g clip-path="url(#c10)"><rect x="372" y="3" width="34" height="13" fill="#10b981"/><rect x="372" y="16" width="34" height="19" fill="#e49f46"/></g><line x1="372" y1="16" x2="406" y2="16" stroke="#0b1626" stroke-width="0.8" opacity="0.25"/><text x="389" y="13" font-size="8.5" font-weight="bold" fill="#0b1626" text-anchor="middle" letter-spacing="0.5">RB</text><text x="389" y="31" font-size="12.5" font-weight="bold" fill="#0b1626" text-anchor="middle">8</text><g clip-path="url(#c11)"><rect x="409" y="3" width="34" height="13" fill="#f59e0b"/><rect x="409" y="16" width="34" height="19" fill="#b1c255"/></g><line x1="409" y1="16" x2="443" y2="16" stroke="#0b1626" stroke-width="0.8" opacity="0.25"/><text x="426" y="13" font-size="8.5" font-weight="bold" fill="#0b1626" text-anchor="middle" letter-spacing="0.5">WR</text><text x="426" y="31" font-size="12.5" font-weight="bold" fill="#0b1626" text-anchor="middle">11</text><g clip-path="url(#c12)"><rect x="446" y="3" width="34" height="13" fill="#10b981"/><rect x="446" y="16" width="34" height="19" fill="#46c06a"/></g><line x1="446" y1="16" x2="480" y2="16" stroke="#0b1626" stroke-width="0.8" opacity="0.25"/><text x="463" y="13" font-size="8.5" font-weight="bold" fill="#0b1626" text-anchor="middle" letter-spacing="0.5">RB</text><text x="463" y="31" font-size="12.5" font-weight="bold" fill="#0b1626" text-anchor="middle">14</text><g clip-path="url(#c13)"><rect x="483" y="3" width="34" height="13" fill="#3b82f6"/><rect x="483" y="16" width="34" height="19" fill="#b1c255"/></g><line x1="483" y1="16" x2="517" y2="16" stroke="#0b1626" stroke-width="0.8" opacity="0.25"/><text x="500" y="13" font-size="8.5" font-weight="bold" fill="#0b1626" text-anchor="middle" letter-spacing="0.5">TE</text><text x="500" y="31" font-size="12.5" font-weight="bold" fill="#0b1626" text-anchor="middle">11</text><g clip-path="url(#c14)"><rect x="520" y="3" width="34" height="13" fill="#3b82f6"/><rect x="520" y="16" width="34" height="19" fill="#e5b749"/></g><line x1="520" y1="16" x2="554" y2="16" stroke="#0b1626" stroke-width="0.8" opacity="0.25"/><text x="537" y="13" font-size="8.5" font-weight="bold" fill="#0b1626" text-anchor="middle" letter-spacing="0.5">TE</text><text x="537" y="31" font-size="12.5" font-weight="bold" fill="#0b1626" text-anchor="middle">9</text><g clip-path="url(#c15)"><rect x="557" y="3" width="34" height="13" fill="#f59e0b"/><rect x="557" y="16" width="34" height="19" fill="#e16f41"/></g><line x1="557" y1="16" x2="591" y2="16" stroke="#0b1626" stroke-width="0.8" opacity="0.25"/><text x="574" y="13" font-size="8.5" font-weight="bold" fill="#0b1626" text-anchor="middle" letter-spacing="0.5">WR</text><text x="574" y="31" font-size="12.5" font-weight="bold" fill="#0b1626" text-anchor="middle">6</text><rect x="557" y="3" width="34" height="32" rx="5" fill="none" stroke="#ece7da" stroke-width="2"/></svg>