<svg xmlns="http://www.w3.org/2000/svg" width="186" height="37" viewBox="0 0 186 37" font-family="ui-monospace, 'Cascadia Mono', Consolas, Menlo, monospace"><defs><clipPath id="c0"><rect x="2" y="3" width="34" height="32" rx="5"/></clipPath><clipPath id="c1"><rect x="39" y="3" width="34" height="32" rx="5"/></clipPath><clipPath id="c2"><rect x="76" y="3" width="34" height="32" rx="5"/></clipPath><clipPath id="c3"><rect x="113" y="3" width="34" height="32" rx="5"/></clipPath><clipPath id="c4"><rect x="150" y="3" width="34" height="32" rx="5"/></clipPath></defs><g clip-path="url(#c0)"><rect x="2" y="3" width="34" height="13" fill="#f59e0b"/><rect x="2" y="16" width="34" height="19" fill="#46c06a"/></g><line x1="2" y1="16" x2="36" y2="16" stroke="#0b1626" stroke-width="0.8" opacity="0.25"/><text x="19" y="13" font-size="8.5" font-weight="bold" fill="#0b1626" text-anchor="middle" letter-spacing="0.5">WR</text><text x="19" y="31" font-size="12.5" font-weight="bold" fill="#0b1626" text-anchor="middle">14</text><g clip-path="url(#c1)"><rect x="39" y="3" width="34" height="13" fill="#10b981"/><rect x="39" y="16" width="34" height="19" fill="#e16f41"/></g><line x1="39" y1="16" x2="73" y2="16" stroke="#0b1626" stroke-width="0.8" opacity="0.25"/><text x="56" y="13" font-size="8.5" font-weight="bold" fill="#0b1626" text-anchor="middle" letter-spacing="0.5">RB</text><text x="56" y="31" font-size="12.5" font-weight="bold" fill="#0b1626" text-anchor="middle">6</text><g clip-path="url(#c2)"><rect x="76" y="3" width="34" height="13" fill="#10b981"/><rect x="76" y="16" width="34" height="19" fill="#b1c255"/></g><line x1="76" y1="16" x2="110" y2="16" stroke="#0b1626" stroke-width="0.8" opacity="0.25"/><text x="93" y="13" font-size="8.5" font-weight="bold" fill="#0b1626" text-anchor="middle" letter-spacing="0.5">RB</text><text x="93" y="31" font-size="12.5" font-weight="bold" fill="#0b1626" text-anchor="middle">11</text><g clip-path="url(#c3)"><rect x="113" y="3" width="34" height="13" fill="#f59e0b"/><rect x="113" y="16" width="34" height="19" fill="#6ac163"/></g><line x1="113" y1="16" x2="147" y2="16" stroke="#0b1626" stroke-width="0.8" opacity="0.25"/><text x="130" y="13" font-size="8.5" font-weight="bold" fill="#0b1626" text-anchor="middle" letter-spacing="0.5">WR</text><text x="130" y="31" font-size="12.5" font-weight="bold" fill="#0b1626" text-anchor="middle">13</text><g clip-path="url(#c4)"><rect x="150" y="3" width="34" height="13" fill="#3b82f6"/><rect x="150" y="16" width="34" height="19" fill="#d4c34e"/></g><line x1="150" y1="16" x2="184" y2="16" stroke="#0b1626" stroke-width="0.8" opacity="0.25"/><text x="167" y="13" font-size="8.5" font-weight="bold" fill="#0b1626" text-anchor="middle" letter-spacing="0.5">TE</text><text x="167" y="31" font-size="12.5" font-weight="bold" fill="#0b1626" text-anchor="middle">10</text><rect x="150" y="3" width="34" height="32" rx="5" fill="none" stroke="#ece7da" stroke-width="2"/></svg>